HIERARCHY
ROOT Hips
{
	OFFSET 0.000000 0.000000 0.000000 
	CHANNELS 6 Xposition Yposition Zposition Zrotation Yrotation Xrotation
	JOINT LeftUpLeg
	{
		OFFSET 1.363060 -1.794630 0.839290 
		CHANNELS 3 Zrotation Yrotation Xrotation
		JOINT LeftLeg
		{
			OFFSET 2.448110 -6.726130 0.000000 
			CHANNELS 3 Zrotation Yrotation Xrotation
			JOINT LeftFoot
			{
				OFFSET 2.562200 -7.039590 0.000000 
				CHANNELS 3 Zrotation Yrotation Xrotation
				JOINT LeftToeBase
				{
					OFFSET 0.157640 -0.433110 2.322550 
					CHANNELS 3 Zrotation Yrotation Xrotation
					End Site
					{
						OFFSET 0.000000 0.000000 0.000000 
					}
				}
			}
		}
	}
	JOINT RightUpLeg
	{
		OFFSET -1.305520 -1.794630 0.839290 
		CHANNELS 3 Zrotation Yrotation Xrotation
		JOINT RightLeg
		{
			OFFSET -2.542530 -6.985550 0.000000 
			CHANNELS 3 Zrotation Yrotation Xrotation
			JOINT RightFoot
			{
				OFFSET -2.568260 -7.056230 0.000000 
				CHANNELS 3 Zrotation Yrotation Xrotation
				JOINT RightToeBase
				{
					OFFSET -0.164730 -0.452590 2.363150 
					CHANNELS 3 Zrotation Yrotation Xrotation
					End Site
					{
						OFFSET 0.000000 0.000000 0.000000 
					}
				}
			}
		}
	}
	JOINT Spine
	{
		OFFSET 0.028270 2.035590 -0.193380 
		CHANNELS 3 Zrotation Yrotation Xrotation
		JOINT Spine1
		{
			OFFSET 0.056720 2.048850 -0.042750 
			CHANNELS 3 Zrotation Yrotation Xrotation
			JOINT Neck1
			{
				OFFSET -0.054170 1.746240 0.172020 
				CHANNELS 3 Zrotation Yrotation Xrotation
				JOINT Head
				{
					OFFSET 0.104070 1.761360 -0.123970 
					CHANNELS 3 Zrotation Yrotation Xrotation
					End Site
					{
						OFFSET 0.000000 0.000000 0.000000 
					}
				}
			}
			JOINT LeftArm
			{
				OFFSET 3.362410 1.200890 -0.311210 
				CHANNELS 3 Zrotation Yrotation Xrotation
				JOINT LeftForeArm
				{
					OFFSET 4.983000 -0.000000 -0.000000 
					CHANNELS 3 Zrotation Yrotation Xrotation
					JOINT LeftHand
					{
						OFFSET 3.483560 -0.000000 -0.000000 
						CHANNELS 3 Zrotation Yrotation Xrotation
						JOINT LeftHandIndex1
						{
							OFFSET 0.715260 -0.000000 -0.000000 
							CHANNELS 3 Zrotation Yrotation Xrotation
							End Site
							{
								OFFSET 0.000000 0.000000 0.000000 
							}
						}
					}
				}
			}
			JOINT RightArm
			{
				OFFSET -3.136600 1.374050 -0.404650 
				CHANNELS 3 Zrotation Yrotation Xrotation
				JOINT RightForeArm
				{
					OFFSET -5.241900 -0.000000 -0.000000 
					CHANNELS 3 Zrotation Yrotation Xrotation
					JOINT RightHand
					{
						OFFSET -3.444170 -0.000000 -0.000000 
						CHANNELS 3 Zrotation Yrotation Xrotation
						JOINT RightHandIndex1
						{
							OFFSET -0.622530 -0.000000 -0.000000 
							CHANNELS 3 Zrotation Yrotation Xrotation
							End Site
							{
								OFFSET 0.000000 0.000000 0.000000 
							}
						}
					}
				}
			}
		}
	}
}
MOTION
Frames: 12
Frame Time: 0.041667
7.119361 16.844849 0.820101 77.488272 87.246867 63.499653 -2.211846 12.116885 -5.111494 5.570146 15.354343 46.483928 3.513752 -4.798484 -5.306063 0.727100 -5.448400 -15.191900 0.748027 -9.140994 -2.157558 -6.857449 -17.170294 50.752418 -1.078582 -0.967065 -13.376972 -0.572100 4.843900 -13.463800 0.131743 1.500188 -1.995731 -1.240824 0.399555 3.415877 5.896785 -0.580632 11.779434 0.149700 0.506600 14.793000 -24.972364 -53.983353 19.395424 24.103825 -31.508168 -10.525062 3.543517 -0.189285 0.596806 -7.125000 0.000000 0.000000 26.708030 52.813863 17.105247 -27.011135 36.347554 -10.836657 0.081440 3.106613 -2.824243 7.125000 0.000000 0.000000 
7.120894 16.844302 0.819115 78.113990 87.168033 64.150464 -2.310377 12.084075 -5.109190 5.555843 15.362861 46.476434 3.488972 -4.725798 -5.382001 0.751800 -5.538200 -15.450300 0.657270 -9.113063 -2.147352 -6.833960 -17.142038 50.662432 -1.041126 -1.069718 -13.325549 -0.587300 4.906600 -13.642400 0.131221 1.488154 -1.992746 -1.164570 0.385715 3.459576 5.971872 -0.559973 11.777727 0.249200 0.507400 14.781800 -24.974364 -53.903297 19.384259 24.180893 -31.590776 -10.579907 3.535131 -0.193664 0.498666 -7.125000 0.000000 0.000000 26.642485 52.849496 17.132823 -27.005524 36.358154 -10.833810 0.074579 3.107272 -2.801958 7.125000 0.000000 0.000000 
7.120675 16.841565 0.818896 77.247791 87.251341 63.254468 -2.230702 12.024476 -5.038155 5.556346 15.350090 46.450185 3.538170 -4.850815 -5.380274 0.684400 -5.289400 -14.735900 0.763060 -9.084924 -2.122809 -6.819870 -17.149524 50.644914 -1.014577 -1.149585 -13.333591 -0.593700 4.933100 -13.717900 0.135457 1.508958 -1.990966 -1.176487 0.398032 3.442487 5.986771 -0.565707 11.748654 0.267200 0.501500 14.727800 -25.024081 -53.884282 19.479501 24.254155 -31.655745 -10.622657 3.531112 -0.206031 0.398539 -7.125000 0.000000 0.000000 26.692152 52.791150 17.167530 -27.095722 36.436929 -10.894036 0.076936 3.108746 -2.860191 7.125000 0.000000 0.000000 
7.118814 16.840470 0.819006 75.750006 87.380581 61.709310 -2.091973 12.021410 -4.992843 5.572157 15.335491 46.444382 3.579562 -4.942723 -5.428250 0.638000 -5.110300 -14.223500 0.939178 -9.040480 -2.095101 -6.828483 -17.182009 50.706461 -1.063921 -1.007002 -13.358610 -0.566300 4.819800 -13.395300 0.140855 1.525312 -1.987357 -1.222110 0.410290 3.440560 5.967794 -0.583903 11.742783 0.241600 0.496100 14.740800 -25.001757 -53.917335 19.484417 24.258073 -31.649063 -10.614619 3.524829 -0.215052 0.390607 -7.125000 0.000000 0.000000 26.651477 52.713408 17.177540 -27.182884 36.518771 -10.954405 0.070304 3.113034 -2.983143 7.125000 0.000000 0.000000 
7.117062 16.839813 0.818130 76.288217 87.396904 62.241292 -2.103013 12.003577 -5.008672 5.571253 15.342770 46.460148 3.518056 -4.769131 -5.490422 0.710900 -5.388700 -15.020700 0.936969 -9.068972 -2.091177 -6.843338 -17.187842 50.740979 -1.127946 -0.815432 -13.353023 -0.541700 4.715400 -13.098500 0.140681 1.515857 -1.984012 -1.241032 0.407644 3.467957 5.970315 -0.618616 11.738258 0.235700 0.484200 14.760000 -25.023194 -53.993858 19.461963 24.235146 -31.613914 -10.587953 3.521457 -0.233293 0.522012 -7.125000 0.000000 0.000000 26.576108 52.668124 17.131501 -27.218597 36.556988 -10.978291 0.063166 3.112950 -3.054681 7.125000 0.000000 0.000000 
7.114873 16.837843 0.817473 77.525729 87.437294 63.499184 -2.093850 11.944231 -5.060025 5.572663 15.356581 46.493248 3.446676 -4.585494 -5.447737 0.795600 -5.693600 -15.897800 0.946197 -9.160761 -2.103179 -6.839063 -17.178856 50.723868 -1.099858 -0.903219 -13.381090 -0.558900 4.788700 -13.306800 0.146808 1.475201 -1.983725 -1.253419 0.390002 3.462084 5.952443 -0.600578 11.686558 0.204900 0.489700 14.687400 -25.098004 -54.039175 19.443319 24.231317 -31.597413 -10.576679 3.521049 -0.267514 0.645828 -7.125000 0.000000 0.000000 26.572234 52.675364 17.137807 -27.253058 36.587027 -10.991502 0.057871 3.107190 -3.069854 7.125000 0.000000 0.000000 
7.112683 16.836091 0.817035 77.666117 87.484272 63.653943 -2.046821 11.901917 -5.075633 5.572015 15.353383 46.485765 3.459165 -4.631330 -5.332712 0.749400 -5.529300 -15.424600 0.985530 -9.213415 -2.136785 -6.825061 -17.172198 50.691008 -1.032354 -1.099121 -13.364476 -0.594800 4.937200 -13.729600 0.153872 1.439601 -1.985267 -1.241894 0.370847 3.449565 5.940596 -0.552594 11.649995 0.196200 0.504100 14.657300 -25.005316 -53.995858 19.285813 24.149200 -31.538161 -10.542549 3.528689 -0.232227 0.653077 -7.125000 0.000000 0.000000 26.563014 52.726744 17.143017 -27.267611 36.598444 -10.997875 0.048515 3.107171 -3.019725 7.125000 0.000000 0.000000 
7.111807 16.834887 0.815393 77.541089 87.463411 63.517250 -2.062359 11.886174 -5.049511 5.559735 15.343673 46.448581 3.485073 -4.709076 -5.274569 0.697400 -5.338400 -14.876300 0.942640 -9.226030 -2.145367 -6.829889 -17.170070 50.693760 -1.053032 -1.023598 -13.292523 -0.581700 4.883500 -13.576600 0.149486 1.443556 -1.992616 -1.265139 0.376469 3.415349 5.932545 -0.557790 11.654290 0.193400 0.501900 14.707500 -24.933380 -53.926909 19.303008 24.108091 -31.513085 -10.533014 3.533808 -0.159135 0.476289 -7.125000 0.000000 0.000000 26.556381 52.689235 17.135948 -27.277546 36.596742 -11.009177 0.045967 3.114219 -2.958160 7.125000 0.000000 0.000000 
7.111698 16.833682 0.814736 77.030749 87.515777 62.977876 -2.005304 11.892457 -5.040485 5.570008 15.341281 46.463186 3.480028 -4.691570 -5.286590 0.741200 -5.499900 -15.340000 1.001326 -9.233265 -2.122115 -6.836292 -17.182771 50.722823 -1.082956 -0.937658 -13.311084 -0.573100 4.848000 -13.475600 0.149036 1.460840 -1.993854 -1.308297 0.391105 3.399764 5.920403 -0.579546 11.656553 0.172600 0.497400 14.719000 -24.962375 -53.906344 19.443325 24.167638 -31.566375 -10.568388 3.530365 -0.144551 0.388004 -7.125000 0.000000 0.000000 26.580148 52.641937 17.117650 -27.274393 36.592364 -11.016444 0.043034 3.119790 -2.893621 7.125000 0.000000 0.000000 
7.111698 16.831602 0.815174 76.685933 87.573504 62.591930 -1.939992 11.895609 -5.028691 5.599873 15.353295 46.534571 3.512300 -4.779131 -5.300003 0.733900 -5.473300 -15.263600 1.078061 -9.250982 -2.103190 -6.850596 -17.202623 50.784615 -1.094166 -0.914456 -13.371648 -0.586500 4.903500 -13.633500 0.156906 1.458908 -1.990555 -1.272375 0.386192 3.395613 5.931392 -0.562907 11.647737 0.194500 0.498100 14.701000 -24.991604 -53.890988 19.446519 24.215397 -31.612379 -10.603592 3.538082 -0.170259 0.530706 -7.125000 0.000000 0.000000 26.575434 52.647827 17.143201 -27.298783 36.616973 -11.031431 0.042234 3.119672 -2.895506 7.125000 0.000000 0.000000 
7.110384 16.830179 0.815393 77.997303 87.443868 63.882854 -2.066622 11.883822 -5.021619 5.606126 15.378718 46.591629 3.549293 -4.890800 -5.327791 0.669200 -5.231300 -14.569500 0.924663 -9.251297 -2.110719 -6.880317 -17.200175 50.847061 -1.121561 -0.831336 -13.363256 -0.573500 4.849700 -13.480500 0.156668 1.441055 -1.994626 -1.197698 0.369787 3.352738 5.929334 -0.518232 11.634842 0.202400 0.509100 14.689500 -25.012255 -53.854048 19.395133 24.219094 -31.616305 -10.615934 3.551018 -0.184776 0.621837 -7.125000 0.000000 0.000000 26.556031 52.681234 17.233647 -27.325781 36.637476 -11.041712 0.044047 3.119625 -3.009540 7.125000 0.000000 0.000000 
7.108085 16.830070 0.815283 79.338988 87.324312 65.224036 -2.196652 11.861595 -5.024342 5.597681 15.396154 46.610723 3.543260 -4.880427 -5.367281 0.655000 -5.176700 -14.413200 0.765468 -9.267528 -2.126161 -6.898153 -17.190423 50.876405 -1.101750 -0.885307 -13.339005 -0.553300 4.765000 -13.239600 0.153405 1.432121 -1.993438 -1.172341 0.361572 3.352601 5.903589 -0.495761 11.628158 0.156700 0.523300 14.677900 -25.010088 -53.867624 19.376298 24.193234 -31.594778 -10.600884 3.554887 -0.188500 0.640100 -7.125000 0.000000 0.000000 26.601967 52.683774 17.238622 -27.382660 36.685571 -11.080041 0.037883 3.119260 -3.019958 7.125000 0.000000 0.000000 
